<svg width="175" height="36" viewBox="0 0 175 36" fill="none" xmlns="http://www.w3.org/2000/svg">
<path d="M56.069 28.8758C55.1874 28.9237 54.3155 28.6731 53.5938 28.1644C53.2924 27.9409 53.0498 27.6473 52.887 27.3091C52.7243 26.9707 52.6465 26.5979 52.6601 26.2228V12.4835C52.653 12.4254 52.6591 12.3662 52.6782 12.3108C52.6972 12.2554 52.7286 12.2051 52.7701 12.1636C52.8116 12.1221 52.8618 12.0907 52.9173 12.0717C52.9727 12.0526 53.0318 12.0465 53.0899 12.0537H55.5799C55.8615 12.0537 55.9949 12.2019 55.9949 12.4835V25.1557C55.9949 25.7189 56.2469 26.0005 56.7656 26.0005C56.9855 26.0095 57.2055 25.9846 57.4177 25.9264C57.7142 25.9264 57.8772 26.0153 57.892 26.2821L58.1143 28.1347C58.125 28.1888 58.124 28.2444 58.1114 28.2981C58.0988 28.3516 58.0748 28.402 58.041 28.4454C58.0073 28.489 57.9646 28.5248 57.916 28.5505C57.8673 28.5761 57.8136 28.5911 57.7586 28.5942C57.2132 28.7744 56.6433 28.8694 56.069 28.8758Z" fill="#252525"/>
<path d="M70.0749 27.2903C68.8239 28.3241 67.2515 28.8895 65.6286 28.8895C64.0056 28.8895 62.4334 28.3241 61.1822 27.2903C60.0826 26.1802 59.4656 24.6807 59.4656 23.1181C59.4656 21.5555 60.0826 20.0561 61.1822 18.9459C62.4358 17.9175 64.0071 17.3555 65.6286 17.3555C67.25 17.3555 68.8214 17.9175 70.0749 18.9459C71.1493 20.0663 71.7492 21.5585 71.7492 23.1107C71.7492 24.6629 71.1493 26.1552 70.0749 27.2755V27.2903ZM63.5239 25.3339C64.1046 25.8599 64.8599 26.1512 65.6434 26.1512C66.4268 26.1512 67.1823 25.8599 67.7628 25.3339C68.2884 24.7298 68.5777 23.956 68.5777 23.1552C68.5777 22.3545 68.2884 21.5807 67.7628 20.9765C67.1823 20.4506 66.4268 20.1592 65.6434 20.1592C64.8599 20.1592 64.1046 20.4506 63.5239 20.9765C62.9985 21.5807 62.7091 22.3545 62.7091 23.1552C62.7091 23.956 62.9985 24.7298 63.5239 25.3339Z" fill="#252525"/>
<path d="M85.4595 17.7303C85.7411 17.7303 85.8745 17.8785 85.8745 18.1601V28.787C85.9004 29.5043 85.7662 30.2183 85.4816 30.8771C85.197 31.536 84.7693 32.1233 84.2293 32.5961C83.0309 33.618 81.4898 34.1475 79.9164 34.0782C78.4953 34.1281 77.093 33.7401 75.8998 32.9666C75.3902 32.6321 74.9549 32.1962 74.621 31.6863C74.2869 31.1763 74.0614 30.6032 73.9582 30.0023C73.9582 29.7059 73.9582 29.5725 74.3584 29.5725H76.8483C76.954 29.5761 77.0566 29.6103 77.1433 29.6708C77.2301 29.7312 77.2976 29.8154 77.3375 29.9134C77.499 30.3635 77.8209 30.7384 78.2416 30.9657C78.7542 31.2303 79.3248 31.3628 79.9015 31.3511C80.2495 31.3702 80.5978 31.3196 80.9261 31.2026C81.2544 31.0856 81.556 30.9042 81.8135 30.6693C82.0487 30.4235 82.2316 30.1326 82.3513 29.8142C82.4711 29.4959 82.525 29.1565 82.5101 28.8166V27.8829C81.6186 28.5386 80.5335 28.8777 79.4273 28.8463C78.653 28.8744 77.8811 28.7459 77.1577 28.4683C76.4344 28.1906 75.7747 27.7698 75.218 27.2308C74.1495 26.1254 73.5522 24.648 73.5522 23.1104C73.5522 21.573 74.1495 20.0956 75.218 18.9901C75.7774 18.456 76.4379 18.0392 77.1608 17.7643C77.8838 17.4893 78.6543 17.3619 79.4273 17.3894C80.5655 17.3593 81.6798 17.7204 82.5842 18.4121V18.1749C82.5774 18.1182 82.5833 18.0605 82.6015 18.0063C82.6198 17.9522 82.6498 17.9027 82.6896 17.8615C82.7293 17.8203 82.7778 17.7886 82.8313 17.7684C82.8849 17.7482 82.9423 17.7404 82.9992 17.7451L85.4595 17.7303ZM79.7089 26.2081C80.0907 26.2199 80.4705 26.1478 80.8213 25.9966C81.1722 25.8456 81.4856 25.6192 81.7394 25.3336C82.2322 24.6973 82.4996 23.9152 82.4996 23.1104C82.4996 22.3056 82.2322 21.5237 81.7394 20.8872C81.4865 20.6056 81.175 20.3826 80.8268 20.2341C80.4785 20.0856 80.1021 20.0152 79.7237 20.0276C79.3374 20.0155 78.9533 20.0873 78.5976 20.2384C78.2418 20.3894 77.9232 20.6159 77.6635 20.9021C77.1177 21.5108 76.8306 22.3083 76.8632 23.1253C76.8365 23.9342 77.1172 24.7233 77.6487 25.3336C77.909 25.6191 78.2278 25.8451 78.5833 25.996C78.9389 26.1469 79.3228 26.2192 79.7089 26.2081Z" fill="#252525"/>
<path d="M98.6652 27.2899C97.4117 28.3184 95.8403 28.8804 94.2189 28.8804C92.5974 28.8804 91.0261 28.3184 89.7725 27.2899C88.6972 26.1671 88.0969 24.6725 88.0969 23.1177C88.0969 21.5631 88.6972 20.0684 89.7725 18.9455C91.0272 17.9198 92.5981 17.3594 94.2189 17.3594C95.8396 17.3594 97.4105 17.9198 98.6652 18.9455C99.7396 20.0659 100.339 21.5581 100.339 23.1103C100.339 24.6626 99.7396 26.1548 98.6652 27.2751V27.2899ZM92.0994 25.3335C92.3835 25.6039 92.7185 25.8151 93.0849 25.955C93.4513 26.0949 93.8417 26.1608 94.2337 26.1487C94.6232 26.1588 95.0109 26.0921 95.3746 25.9522C95.7383 25.8122 96.0708 25.6021 96.3531 25.3335C96.8701 24.7253 97.1539 23.9531 97.1539 23.1548C97.1539 22.3565 96.8701 21.5843 96.3531 20.9761C96.0708 20.7077 95.7383 20.4973 95.3746 20.3576C95.0109 20.2177 94.6232 20.1508 94.2337 20.1609C93.8417 20.1489 93.4513 20.2147 93.0849 20.3546C92.7185 20.4945 92.3835 20.7059 92.0994 20.9761C91.5826 21.5843 91.2988 22.3565 91.2988 23.1548C91.2988 23.9531 91.5826 24.7253 92.0994 25.3335Z" fill="#252525"/>
<path d="M105.691 15.2107C105.299 15.5537 104.796 15.7427 104.275 15.7427C103.755 15.7427 103.252 15.5537 102.86 15.2107C102.682 15.0431 102.541 14.8409 102.444 14.6167C102.347 14.3924 102.297 14.1507 102.297 13.9065C102.297 13.6622 102.347 13.4206 102.444 13.1962C102.541 12.972 102.682 12.7698 102.86 12.6022C103.256 12.2678 103.757 12.0845 104.275 12.0845C104.793 12.0845 105.295 12.2678 105.691 12.6022C105.868 12.7698 106.01 12.972 106.107 13.1962C106.203 13.4206 106.253 13.6622 106.253 13.9065C106.253 14.1507 106.203 14.3924 106.107 14.6167C106.01 14.8409 105.868 15.0431 105.691 15.2107ZM106.002 28.8759C105.121 28.9192 104.251 28.669 103.527 28.1645C103.23 27.9378 102.991 27.6431 102.832 27.3053C102.672 26.9676 102.595 26.5964 102.608 26.2229V18.1602C102.601 18.1021 102.607 18.0429 102.626 17.9875C102.645 17.9321 102.676 17.8818 102.718 17.8403C102.759 17.7988 102.81 17.7674 102.865 17.7484C102.92 17.7293 102.98 17.7232 103.038 17.7303H105.528C105.809 17.7303 105.943 17.8786 105.943 18.1602V25.1558C105.943 25.719 106.195 26.0006 106.699 26.0006C106.923 26.0088 107.148 25.9837 107.366 25.9265C107.662 25.9265 107.825 26.0154 107.84 26.2822L108.062 28.1349C108.073 28.189 108.072 28.2446 108.059 28.2982C108.047 28.3517 108.023 28.4021 107.989 28.4455C107.955 28.4891 107.912 28.525 107.864 28.5506C107.815 28.5763 107.761 28.5912 107.706 28.5943C107.156 28.7756 106.581 28.8706 106.002 28.8759Z" fill="#252525"/>
<path d="M117.221 17.3745C117.999 17.3438 118.775 17.4696 119.503 17.7445C120.231 18.0196 120.897 18.438 121.46 18.9752C122.508 20.1001 123.091 21.5803 123.091 23.1177C123.091 24.6551 122.508 26.1355 121.46 27.2602C120.9 27.8023 120.235 28.2248 119.506 28.5024C118.778 28.7802 118 28.9072 117.221 28.8758C116.112 28.9005 115.024 28.5623 114.124 27.9124V33.2629C114.124 33.5445 113.975 33.6779 113.694 33.6779H111.204C111.147 33.6885 111.089 33.6851 111.033 33.6681C110.978 33.6509 110.928 33.6206 110.887 33.5797C110.846 33.5388 110.816 33.4887 110.799 33.4335C110.782 33.3783 110.778 33.3198 110.789 33.2629V21.1094C110.806 20.9905 110.796 20.8693 110.758 20.7552C110.72 20.6412 110.656 20.5375 110.571 20.4525C110.486 20.3676 110.383 20.3037 110.269 20.2659C110.155 20.2281 110.033 20.2176 109.914 20.235H109.425C109.099 20.235 108.936 20.1164 108.936 19.8793V18.1303C108.929 18.0221 108.958 17.9145 109.02 17.8256C109.082 17.7365 109.173 17.6715 109.277 17.6412C109.79 17.4549 110.332 17.3645 110.878 17.3745C111.422 17.3263 111.968 17.4417 112.446 17.7057C112.923 17.9698 113.312 18.3706 113.56 18.8566C114.038 18.3737 114.609 17.9932 115.238 17.7383C115.868 17.4835 116.543 17.3596 117.221 17.3745ZM114.909 25.3335C115.173 25.6097 115.491 25.8295 115.843 25.9797C116.194 26.1298 116.572 26.2072 116.955 26.2072C117.337 26.2072 117.715 26.1298 118.067 25.9797C118.418 25.8295 118.736 25.6097 119 25.3335C119.557 24.7126 119.849 23.8991 119.815 23.0658C119.854 22.232 119.561 21.4165 119 20.7982C118.736 20.522 118.418 20.3022 118.067 20.1521C117.715 20.0018 117.337 19.9245 116.955 19.9245C116.572 19.9245 116.194 20.0018 115.843 20.1521C115.491 20.3022 115.173 20.522 114.909 20.7982C114.37 21.4275 114.089 22.2378 114.124 23.0658C114.094 23.8933 114.374 24.7021 114.909 25.3335Z" fill="#252525"/>
<path d="M130.086 28.8759C128.756 28.9306 127.436 28.6124 126.277 27.957C125.812 27.6768 125.416 27.2955 125.118 26.8414C124.821 26.3872 124.629 25.8719 124.558 25.3336C124.558 25.0372 124.662 24.889 124.988 24.889H127.166C127.27 24.8931 127.371 24.9256 127.457 24.9832C127.543 25.0407 127.612 25.1209 127.656 25.215C127.967 26.0154 128.782 26.4155 130.086 26.4155C130.541 26.4364 130.994 26.3447 131.405 26.1488C131.547 26.0847 131.669 25.9834 131.758 25.8554C131.847 25.7275 131.899 25.5778 131.909 25.4225C131.909 25.0372 131.672 24.7704 131.198 24.5925C130.635 24.4053 130.054 24.281 129.464 24.222C128.765 24.1429 128.072 24.0191 127.389 23.8515C126.724 23.7012 126.12 23.3552 125.655 22.8584C125.38 22.5208 125.178 22.1303 125.061 21.7113C124.944 21.2923 124.915 20.8536 124.975 20.4227C125.035 19.9917 125.182 19.5776 125.409 19.2063C125.636 18.8349 125.936 18.5142 126.292 18.2638C127.36 17.5834 128.614 17.2518 129.879 17.3153C131.104 17.2739 132.315 17.5769 133.377 18.1897C133.804 18.4321 134.172 18.7666 134.454 19.1691C134.737 19.5717 134.925 20.032 135.007 20.5167C135.007 20.8131 134.873 20.9613 134.607 20.9613H132.413C132.321 20.9668 132.229 20.9443 132.15 20.8967C132.07 20.8491 132.007 20.7786 131.968 20.6945C131.822 20.3436 131.546 20.0623 131.198 19.909C130.805 19.7036 130.366 19.6015 129.923 19.6126C129.489 19.589 129.055 19.6757 128.663 19.8645C128.525 19.9179 128.406 20.0113 128.322 20.1328C128.237 20.2543 128.191 20.3984 128.189 20.5463C128.199 20.7491 128.273 20.9434 128.401 21.1008C128.529 21.2582 128.704 21.3702 128.9 21.4208C129.47 21.6354 130.061 21.7845 130.664 21.8654C131.357 21.9567 132.045 22.0854 132.724 22.2508C133.389 22.4012 133.993 22.747 134.458 23.2438C134.708 23.5175 134.9 23.8378 135.025 24.1864C135.149 24.5349 135.204 24.9047 135.185 25.2743C135.197 25.7867 135.077 26.2936 134.836 26.7456C134.594 27.1975 134.239 27.5792 133.806 27.8532C132.699 28.5642 131.401 28.9208 130.086 28.8759Z" fill="#252525"/>
<path d="M150.851 28.135C150.86 28.1876 150.857 28.2414 150.845 28.2931C150.832 28.345 150.809 28.3936 150.777 28.4365C150.746 28.4793 150.706 28.5153 150.66 28.5424C150.614 28.5696 150.563 28.5872 150.51 28.5945C149.969 28.7711 149.404 28.8661 148.835 28.8761C148.272 28.9345 147.703 28.8464 147.184 28.6206C146.664 28.3947 146.212 28.0385 145.871 27.5866C144.825 28.4867 143.47 28.9485 142.092 28.8761C141.451 28.9056 140.812 28.8008 140.215 28.5685C139.618 28.3363 139.075 27.9816 138.623 27.5273C138.174 27.0514 137.826 26.4897 137.6 25.8759C137.373 25.2622 137.273 24.609 137.304 23.9554V18.1603C137.304 17.8787 137.438 17.7305 137.719 17.7305H140.209C140.491 17.7305 140.624 17.8787 140.624 18.1603V23.5108C140.598 24.1774 140.824 24.8293 141.262 25.3338C141.479 25.565 141.745 25.7467 142.038 25.8669C142.332 25.9871 142.649 26.0428 142.966 26.0304C143.291 26.0446 143.615 25.9944 143.921 25.8823C144.226 25.7704 144.506 25.5991 144.745 25.3782C144.97 25.1456 145.146 24.869 145.26 24.5656C145.376 24.2622 145.426 23.9385 145.412 23.6145V18.1603C145.412 17.8787 145.545 17.7305 145.827 17.7305H148.346C148.628 17.7305 148.761 17.8787 148.761 18.1603V25.1411C148.761 25.7191 149.013 26.0007 149.502 26.0007C149.732 26.0096 149.962 25.9847 150.184 25.9266C150.24 25.9109 150.3 25.9081 150.356 25.9185C150.414 25.9287 150.467 25.9518 150.515 25.9861C150.562 26.0203 150.6 26.0648 150.629 26.1161C150.655 26.1673 150.67 26.2242 150.673 26.2823L150.851 28.135Z" fill="#252525"/>
<path d="M174.402 28.1346C174.415 28.1877 174.417 28.2431 174.406 28.2968C174.394 28.3503 174.372 28.401 174.34 28.4448C174.307 28.4887 174.266 28.5249 174.217 28.5506C174.169 28.5766 174.116 28.5914 174.061 28.5941C173.51 28.7733 172.936 28.8683 172.357 28.8757C171.475 28.9212 170.605 28.6708 169.881 28.1643C169.569 27.9473 169.315 27.6566 169.142 27.318C168.968 26.9793 168.881 26.603 168.888 26.2227V22.7397C168.92 22.0751 168.697 21.4234 168.266 20.9167C168.058 20.685 167.801 20.5024 167.514 20.3819C167.227 20.2616 166.917 20.2063 166.606 20.2201C166.326 20.2095 166.047 20.2627 165.789 20.3757C165.533 20.4886 165.306 20.6585 165.124 20.8722C164.733 21.3688 164.532 21.9896 164.561 22.6211V28.0901C164.561 28.3718 164.427 28.52 164.146 28.52H161.641C161.583 28.5272 161.524 28.521 161.469 28.502C161.413 28.4829 161.362 28.4515 161.321 28.41C161.279 28.3686 161.248 28.3182 161.229 28.2628C161.209 28.2074 161.204 28.1484 161.211 28.0901V22.7397C161.244 22.0823 161.038 21.4352 160.633 20.9167C160.452 20.6988 160.225 20.5234 159.969 20.4031C159.714 20.2827 159.434 20.2202 159.151 20.2201C158.848 20.2079 158.548 20.2596 158.266 20.3721C157.984 20.4845 157.731 20.6549 157.52 20.8722C157.097 21.353 156.879 21.9811 156.913 22.6211V28.0901C156.92 28.1484 156.914 28.2074 156.895 28.2628C156.876 28.3182 156.845 28.3686 156.803 28.41C156.762 28.4515 156.711 28.4829 156.656 28.502C156.6 28.521 156.541 28.5272 156.483 28.52H154.067C153.786 28.52 153.652 28.3718 153.652 28.0901V21.1093C153.67 20.9905 153.66 20.8692 153.621 20.7551C153.584 20.6411 153.52 20.5374 153.434 20.4524C153.35 20.3675 153.246 20.3036 153.132 20.2658C153.018 20.2281 152.896 20.2175 152.778 20.2349H152.289C151.962 20.2349 151.799 20.1163 151.799 19.8792V18.1303C151.792 18.0221 151.822 17.9145 151.884 17.8255C151.946 17.7364 152.037 17.6714 152.14 17.6412C152.653 17.4548 153.196 17.3644 153.741 17.3744C154.264 17.3298 154.79 17.4341 155.257 17.6754C155.724 17.9167 156.112 18.285 156.379 18.7379C156.879 18.2641 157.472 17.8983 158.119 17.6637C158.767 17.4291 159.456 17.3306 160.144 17.3744C160.812 17.3418 161.478 17.467 162.088 17.74C162.699 18.013 163.236 18.4259 163.656 18.9454C164.147 18.4123 164.75 17.9949 165.422 17.7231C166.093 17.4514 166.816 17.3324 167.54 17.3744C168.186 17.3441 168.832 17.4483 169.437 17.6806C170.041 17.9127 170.591 18.2676 171.052 18.7231C171.503 19.1981 171.851 19.7597 172.078 20.3737C172.305 20.9876 172.405 21.6414 172.371 22.295V25.1555C172.371 25.7187 172.623 26.0003 173.098 26.0003C173.327 26.011 173.557 25.9861 173.779 25.9262C174.086 25.9262 174.249 26.0448 174.269 26.282L174.402 28.1346Z" fill="#252525"/>
<path d="M0.607672 15.8036C1.70114 11.4086 4.23359 7.50572 7.80177 4.71656C11.37 1.92735 15.7688 0.412109 20.2977 0.412109C24.8267 0.412109 29.2255 1.92735 32.7937 4.71656C36.3619 7.50572 38.8943 11.4086 39.9878 15.8036H38.2092C35.209 15.7594 32.2702 16.6561 29.8056 18.3676C29.6633 18.4706 29.5148 18.5648 29.3609 18.6492H29.1534C28.9996 18.5648 28.8511 18.4706 28.7088 18.3676C26.2224 16.6957 23.294 15.8027 20.2977 15.8027C17.3015 15.8027 14.3731 16.6957 11.8867 18.3676C11.7444 18.4706 11.5959 18.5648 11.442 18.6492H11.2345C11.0807 18.5648 10.9322 18.4706 10.7899 18.3676C8.32526 16.6561 5.3865 15.7594 2.38622 15.8036H0.607672ZM35.0079 25.0965C35.9208 24.3855 37.0524 24.0135 38.2092 24.0442H40.5955V19.2866H38.2092C36.1716 19.262 34.1807 19.8962 32.5327 21.0948C31.6053 21.7785 30.4835 22.1474 29.3313 22.1474C28.1791 22.1474 27.0573 21.7785 26.1299 21.0948C24.4401 19.9185 22.4307 19.2879 20.3718 19.2879C18.313 19.2879 16.3036 19.9185 14.6138 21.0948C13.6864 21.7785 12.5646 22.1474 11.4124 22.1474C10.2602 22.1474 9.13835 21.7785 8.21099 21.0948C6.5427 19.8807 4.52316 19.2458 2.46033 19.2866H0V24.0442H2.38622C3.54304 24.0135 4.67463 24.3855 5.58762 25.0965C7.27428 26.2736 9.28153 26.9047 11.3383 26.9047C13.395 26.9047 15.4023 26.2736 17.0889 25.0965C18.0031 24.3877 19.1338 24.016 20.2903 24.0442C21.4476 24.011 22.5799 24.3833 23.4917 25.0965C25.1815 26.2729 27.191 26.9034 29.2498 26.9034C31.3086 26.9034 33.3181 26.2729 35.0079 25.0965ZM35.0079 33.6039C35.9208 32.8929 37.0524 32.5209 38.2092 32.5516H40.5955V27.794H38.2092C36.1716 27.7694 34.1807 28.4036 32.5327 29.6022C31.6053 30.2859 30.4835 30.6548 29.3313 30.6548C28.1791 30.6548 27.0573 30.2859 26.1299 29.6022C24.4401 28.426 22.4307 27.7955 20.3718 27.7955C18.313 27.7955 16.3036 28.426 14.6138 29.6022C13.6864 30.2859 12.5646 30.6548 11.4124 30.6548C10.2602 30.6548 9.13835 30.2859 8.21099 29.6022C6.5427 28.3883 4.52316 27.7532 2.46033 27.794H0V32.5516H2.38622C3.54304 32.5209 4.67463 32.8929 5.58762 33.6039C7.27428 34.781 9.28153 35.4121 11.3383 35.4121C13.395 35.4121 15.4023 34.781 17.0889 33.6039C18.0031 32.8952 19.1338 32.5234 20.2903 32.5516C21.4476 32.5184 22.5799 32.8907 23.4917 33.6039C25.1815 34.7803 27.191 35.4108 29.2498 35.4108C31.3086 35.4108 33.3181 34.7803 35.0079 33.6039Z" fill="#252525"/>
</svg>
