<svg width="181" height="36" viewBox="0 0 181 36" fill="none" xmlns="http://www.w3.org/2000/svg">
<path d="M27.132 16.016C26.6266 16.5244 26.2397 17.138 25.9986 17.8129C25.7576 18.488 25.6684 19.2079 25.7373 19.9213L25.7133 19.8973C25.7842 20.7372 25.6709 21.5823 25.3814 22.3739C25.092 23.1653 24.6333 23.8841 24.0374 24.4801C23.4414 25.076 22.7226 25.5348 21.931 25.8241C21.1396 26.1136 20.2944 26.2269 19.4546 26.156L19.4786 26.18C18.4741 26.0865 17.4652 26.3051 16.5893 26.806C15.7136 27.3069 15.0136 28.0657 14.5849 28.9791C14.1562 29.8924 14.0196 30.9156 14.1937 31.9095C14.368 32.9032 14.8444 33.8191 15.5581 34.5321C16.2718 35.2452 17.1881 35.7208 18.182 35.894C19.176 36.0673 20.199 35.9297 21.112 35.5003C22.0249 35.0707 22.783 34.3701 23.2832 33.4939C23.7833 32.6176 24.001 31.6085 23.9066 30.604L23.932 30.628C23.861 29.7883 23.9742 28.9431 24.2637 28.1515C24.5532 27.36 25.012 26.6412 25.6078 26.0452C26.2038 25.4493 26.9226 24.9905 27.7141 24.7012C28.5057 24.4117 29.3508 24.2984 30.1906 24.3693L30.1653 24.3453C30.9858 24.4191 31.8118 24.2845 32.5666 23.9541C33.3213 23.6237 33.9805 23.1081 34.4829 22.4552C34.9853 21.8023 35.3149 21.0329 35.4408 20.2188C35.5668 19.4045 35.4852 18.5717 35.2036 17.7973C34.922 17.0231 34.4494 16.3324 33.8298 15.7893C33.2102 15.2463 32.4636 14.8684 31.659 14.6908C30.8545 14.5132 30.0181 14.5415 29.2274 14.7731C28.4368 15.0048 27.7174 15.4323 27.136 16.016H27.132Z" fill="#252525"/>
<path d="M17.2959 23.0358L17.2705 23.0118C17.9843 23.0837 18.7051 22.9961 19.3809 22.7553C20.0567 22.5145 20.6705 22.1266 21.178 21.6196C21.6853 21.1125 22.0739 20.4989 22.3151 19.8233C22.5564 19.1477 22.6445 18.427 22.5732 17.7132L22.5985 17.7372C22.5276 16.8973 22.6409 16.0522 22.9303 15.2606C23.2197 14.4692 23.6785 13.7504 24.2744 13.1544C24.8704 12.5585 25.5892 12.0997 26.3807 11.8104C27.1723 11.5208 28.0173 11.4076 28.8572 11.4785L28.8319 11.4545C29.8365 11.5489 30.8457 11.331 31.722 10.8306C32.5984 10.3303 33.2989 9.57178 33.7283 8.65862C34.1576 7.74547 34.2948 6.7221 34.1212 5.72809C33.9476 4.73407 33.4716 3.81783 32.758 3.10431C32.0445 2.39081 31.1283 1.91475 30.1343 1.74113C29.1403 1.56749 28.1169 1.7047 27.2037 2.13406C26.2905 2.56341 25.5321 3.26401 25.0317 4.14029C24.5313 5.01655 24.3135 6.02585 24.4079 7.03049L24.3839 7.00515C24.4549 7.84501 24.3419 8.69026 24.0525 9.48189C23.7632 10.2735 23.3044 10.9924 22.7085 11.5885C22.1125 12.1844 21.3936 12.6432 20.602 12.9325C19.8103 13.2218 18.9651 13.3349 18.1252 13.2638L18.1492 13.2892C17.4355 13.2173 16.7145 13.3049 16.0388 13.5457C15.3631 13.7864 14.7492 14.1744 14.2417 14.6814C13.7343 15.1885 13.3459 15.8021 13.1045 16.4777C12.8633 17.1533 12.7752 17.874 12.8465 18.5878L12.8225 18.5638C12.8932 19.4036 12.7797 20.2486 12.4903 21.0401C12.2007 21.8314 11.742 22.5502 11.1461 23.1461C10.5502 23.742 9.8315 24.2006 9.04008 24.4902C8.24867 24.7797 7.40362 24.8932 6.56387 24.8225L6.58787 24.8465C5.58323 24.7521 4.57394 24.97 3.69766 25.4704C2.82139 25.9708 2.12079 26.7292 1.69144 27.6424C1.26208 28.5556 1.12486 29.5789 1.2985 30.5729C1.47214 31.5669 1.94819 32.4832 2.6617 33.1966C3.37522 33.9102 4.29146 34.3862 5.28547 34.5598C6.27948 34.7334 7.30286 34.5962 8.21602 34.1669C9.12916 33.7376 9.88766 33.037 10.388 32.1608C10.8884 31.2844 11.1063 30.2752 11.0119 29.2705L11.0372 29.2945C10.9663 28.4546 11.0796 27.6096 11.3691 26.818C11.6584 26.0265 12.1172 25.3077 12.7131 24.7117C13.3091 24.1158 14.0279 23.657 14.8193 23.3677C15.6109 23.0782 16.456 22.9649 17.2959 23.0358Z" fill="#252525"/>
<path d="M8.35987 20.3601C8.86523 19.8518 9.25213 19.2382 9.49299 18.5631C9.73384 17.8881 9.82269 17.1681 9.7532 16.4547L9.77852 16.4787C9.70759 15.6387 9.82087 14.7933 10.1105 14.0015C10.4001 13.2098 10.8591 12.4909 11.4553 11.8949C12.0516 11.2989 12.7707 10.8402 13.5625 10.551C14.3544 10.2617 15.1999 10.1488 16.0399 10.2201L16.0145 10.1961C17.0188 10.2902 18.0277 10.0722 18.9036 9.57186C19.7795 9.07155 20.4796 8.31324 20.9088 7.40038C21.3379 6.4875 21.4749 5.4645 21.3013 4.47086C21.1277 3.47722 20.6517 2.56132 19.9385 1.84807C19.2253 1.13482 18.3093 0.658923 17.3157 0.485297C16.3221 0.311657 15.2991 0.44875 14.3863 0.877843C13.4733 1.30694 12.7151 2.00716 12.2148 2.88303C11.7144 3.7589 11.4964 4.76778 11.5905 5.77207L11.5665 5.74807C11.6375 6.58787 11.5241 7.43303 11.2347 8.22455C10.9452 9.01607 10.4866 9.73488 9.89061 10.3308C9.29468 10.9268 8.57585 11.3855 7.78433 11.6749C6.99281 11.9643 6.14767 12.0777 5.30787 12.0067L5.33187 12.0307C4.51129 11.9571 3.68541 12.0919 2.93077 12.4225C2.17613 12.753 1.51713 13.2687 1.01485 13.9218C0.512572 14.5747 0.183265 15.3441 0.0574252 16.1582C-0.0684015 16.9725 0.0133185 17.8053 0.295012 18.5794C0.576705 19.3537 1.04928 20.0442 1.66892 20.5871C2.28856 21.1302 3.03523 21.5079 3.83973 21.6855C4.64423 21.863 5.48053 21.8346 6.27116 21.603C7.06177 21.3713 7.78111 20.9438 8.36252 20.3601H8.35987Z" fill="#252525"/>
<path d="M49.6626 7.06152H53.6226V26.3322H49.6626V7.06152Z" fill="#252525"/>
<path d="M55.8652 19.733C55.8597 18.3482 56.2653 16.9927 57.0306 15.8386C57.796 14.6844 58.8866 13.7834 60.1645 13.2496C61.4424 12.7158 62.8498 12.5732 64.2088 12.84C65.5677 13.1068 66.8169 13.7708 67.7981 14.7482C68.7793 15.7254 69.4484 16.9719 69.7206 18.3298C69.9929 19.6876 69.856 21.0958 69.3273 22.3758C68.7986 23.6556 67.902 24.75 66.7509 25.5199C65.5997 26.2899 64.2461 26.701 62.8612 26.701C61.942 26.7115 61.0298 26.5386 60.1781 26.1924C59.3264 25.8463 58.5522 25.3339 57.9009 24.6852C57.2494 24.0364 56.734 23.2643 56.3845 22.414C56.0349 21.5638 55.8584 20.6523 55.8652 19.733ZM65.8972 19.733C65.8806 19.136 65.6885 18.5572 65.3449 18.0688C65.0012 17.5806 64.5212 17.2043 63.9649 16.9874C63.4085 16.7703 62.8006 16.722 62.217 16.8487C61.6334 16.9754 61.1001 17.2711 60.6837 17.6992C60.2674 18.1272 59.9864 18.6686 59.8761 19.2555C59.7657 19.8423 59.8306 20.4487 60.063 20.9988C60.2954 21.549 60.6848 22.0183 61.1824 22.3483C61.6801 22.6783 62.2641 22.8543 62.8612 22.8543C63.2701 22.8652 63.6769 22.7912 64.056 22.6371C64.4349 22.483 64.7778 22.252 65.063 21.9588C65.3482 21.6655 65.5697 21.3163 65.7132 20.9332C65.8568 20.5502 65.9194 20.1415 65.8972 19.733Z" fill="#252525"/>
<path d="M85.64 13.1332V25.6666C85.64 30.1012 82.1813 31.9759 78.6706 31.9759C77.4346 32.0684 76.1969 31.8187 75.0933 31.2543C73.9898 30.6898 73.063 29.8323 72.4146 28.7759L75.7933 26.8226C76.0658 27.3732 76.5001 27.8275 77.0378 28.1247C77.5757 28.4218 78.1914 28.5476 78.8026 28.4852C79.1933 28.5394 79.5912 28.505 79.9668 28.3846C80.3422 28.2642 80.686 28.0608 80.9724 27.7898C81.2588 27.5186 81.4805 27.1866 81.6213 26.818C81.7619 26.4496 81.818 26.0543 81.7853 25.6612V24.4546C81.3216 25.0219 80.7314 25.4727 80.062 25.7707C79.3925 26.0687 78.6626 26.2056 77.9306 26.1706C76.189 26.1156 74.5371 25.3852 73.3246 24.1338C72.1121 22.8824 71.4341 21.2083 71.4341 19.4659C71.4341 17.7235 72.1121 16.0494 73.3246 14.798C74.5371 13.5466 76.189 12.8162 77.9306 12.7612C78.6626 12.7262 79.3925 12.8631 80.062 13.1611C80.7314 13.4591 81.3216 13.9099 81.7853 14.4772V13.1306L85.64 13.1332ZM81.7866 19.4679C81.8133 18.8298 81.6482 18.1982 81.3129 17.6546C80.9775 17.1108 80.4871 16.68 79.9049 16.4175C79.3226 16.1548 78.6752 16.0726 78.0457 16.1811C77.4162 16.2896 76.8337 16.584 76.3729 17.0266C75.9122 17.469 75.5945 18.0391 75.4605 18.6636C75.3266 19.2882 75.3826 19.9386 75.6216 20.531C75.8604 21.1234 76.271 21.6308 76.8006 21.9879C77.3302 22.345 77.9546 22.5354 78.5933 22.5346C79.0094 22.5636 79.4269 22.5052 79.819 22.3631C80.2111 22.221 80.5691 21.9982 80.8699 21.7094C81.1707 21.4204 81.4078 21.0718 81.5657 20.6856C81.7236 20.2996 81.7989 19.8848 81.7866 19.4679Z" fill="#252525"/>
<path d="M87.8825 19.733C87.877 18.3482 88.2825 16.9927 89.048 15.8386C89.8133 14.6844 90.904 13.7834 92.1818 13.2496C93.4597 12.7158 94.8672 12.5732 96.2261 12.84C97.585 13.1068 98.8342 13.7708 99.8154 14.7482C100.797 15.7254 101.466 16.9719 101.738 18.3298C102.01 19.6876 101.873 21.0958 101.345 22.3758C100.816 23.6556 99.9193 24.75 98.7682 25.5199C97.617 26.2899 96.2634 26.701 94.8785 26.701C93.9593 26.7115 93.047 26.5386 92.1954 26.1924C91.3437 25.8463 90.5696 25.3339 89.9182 24.6852C89.2668 24.0364 88.7513 23.2643 88.4018 22.414C88.0522 21.5638 87.8757 20.6523 87.8825 19.733ZM97.9145 19.733C97.898 19.136 97.7058 18.5572 97.3622 18.0688C97.0185 17.5806 96.5385 17.2043 95.9822 16.9874C95.4258 16.7703 94.8178 16.722 94.2344 16.8487C93.6508 16.9754 93.1174 17.2711 92.701 17.6992C92.2848 18.1272 92.0037 18.6686 91.8933 19.2555C91.7829 19.8423 91.848 20.4487 92.0804 20.9988C92.3128 21.549 92.7021 22.0183 93.1997 22.3483C93.6974 22.6783 94.2813 22.8543 94.8785 22.8543C95.2874 22.8652 95.6942 22.7912 96.0732 22.6371C96.4522 22.483 96.7952 22.252 97.0804 21.9588C97.3656 21.6655 97.587 21.3163 97.7305 20.9332C97.8741 20.5502 97.9368 20.1415 97.9145 19.733Z" fill="#252525"/>
<path d="M103.721 9.59573C103.721 9.1258 103.861 8.66642 104.122 8.2757C104.383 7.88497 104.754 7.58042 105.188 7.4006C105.622 7.22076 106.1 7.1737 106.561 7.26538C107.022 7.35706 107.445 7.58336 107.777 7.91565C108.11 8.24793 108.336 8.67129 108.428 9.1322C108.519 9.59309 108.472 10.0708 108.292 10.505C108.113 10.9391 107.808 11.3102 107.417 11.5713C107.027 11.8324 106.567 11.9717 106.097 11.9717C105.469 11.9655 104.868 11.7132 104.424 11.2689C103.98 10.8247 103.727 10.2239 103.721 9.59573ZM104.121 13.1331H108.083V26.3331H104.116L104.121 13.1331Z" fill="#252525"/>
<path d="M125.181 19.7335C125.227 20.6059 125.1 21.4787 124.807 22.3018C124.515 23.1249 124.062 23.8819 123.476 24.5295C122.889 25.177 122.181 25.7023 121.391 26.0751C120.601 26.4478 119.745 26.6607 118.872 26.7015C118.138 26.7415 117.405 26.6178 116.725 26.3393C116.044 26.0606 115.435 25.6342 114.94 25.0909V31.6122H110.98V13.1335H114.94V14.3735C115.435 13.8306 116.045 13.4045 116.725 13.1262C117.405 12.8478 118.138 12.7242 118.872 12.7642C119.745 12.8049 120.601 13.0177 121.391 13.3905C122.181 13.7633 122.89 14.2886 123.477 14.9363C124.063 15.5841 124.515 16.3414 124.808 17.1647C125.101 17.9879 125.227 18.861 125.181 19.7335ZM121.221 19.7335C121.206 19.1158 121.009 18.5163 120.654 18.0101C120.299 17.5039 119.804 17.1135 119.228 16.8879C118.653 16.6622 118.024 16.6111 117.42 16.7413C116.816 16.8713 116.263 17.1766 115.832 17.619C115.401 18.0615 115.109 18.6213 114.994 19.2286C114.88 19.8358 114.946 20.4633 115.187 21.0327C115.427 21.6022 115.829 22.0881 116.344 22.4298C116.859 22.7714 117.463 22.9537 118.081 22.9535C118.506 22.9725 118.929 22.9014 119.324 22.7451C119.719 22.589 120.076 22.351 120.373 22.047C120.669 21.7429 120.898 21.3797 121.044 20.981C121.191 20.5823 121.251 20.1571 121.221 19.7335Z" fill="#252525"/>
<path d="M137.401 22.3716C137.401 25.4076 134.763 26.701 131.912 26.701C130.76 26.8052 129.603 26.5618 128.592 26.0016C127.58 25.4416 126.759 24.591 126.236 23.5596L129.667 21.6063C129.805 22.083 130.103 22.4978 130.511 22.7811C130.919 23.0646 131.412 23.1996 131.907 23.1636C132.856 23.1636 133.332 22.873 133.332 22.3463C133.332 20.893 126.837 21.6596 126.837 17.093C126.837 14.2143 129.267 12.7636 132.012 12.7636C133.044 12.731 134.065 12.9758 134.97 13.4724C135.876 13.9692 136.632 14.6996 137.159 15.5876L133.78 17.409C133.632 17.0632 133.385 16.7687 133.071 16.5622C132.756 16.3556 132.388 16.2463 132.012 16.2476C131.325 16.2476 130.903 16.5143 130.903 16.9863C130.908 18.4916 137.401 17.4876 137.401 22.3716Z" fill="#252525"/>
<path d="M151.867 13.1333V26.3333H147.907V25.092C147.449 25.6397 146.869 26.0713 146.213 26.3513C145.557 26.6313 144.845 26.7517 144.133 26.7026C141.467 26.7026 139.2 24.8026 139.2 21.236V13.1333H143.16V20.656C143.127 20.9704 143.163 21.2882 143.265 21.5873C143.367 21.8865 143.533 22.1598 143.752 22.3882C143.971 22.6166 144.236 22.7946 144.531 22.91C144.824 23.0253 145.14 23.0752 145.456 23.056C146.908 23.056 147.911 22.212 147.911 20.3373V13.1373L151.867 13.1333Z" fill="#252525"/>
<path d="M174.573 18.228V26.332H170.613V18.5706C170.613 17.2506 169.98 16.4066 168.713 16.4066C167.393 16.4066 166.653 17.3306 166.653 18.888V26.332H162.694V18.5706C162.694 17.2506 162.061 16.4066 160.793 16.4066C159.473 16.4066 158.734 17.3306 158.734 18.888V26.332H154.774V13.132H158.734V14.3453C159.145 13.807 159.684 13.3801 160.301 13.1037C160.92 12.8272 161.597 12.71 162.272 12.7626C162.949 12.7294 163.624 12.8725 164.23 13.1777C164.836 13.4828 165.352 13.9398 165.729 14.504C166.168 13.9137 166.749 13.4444 167.418 13.1398C168.088 12.8353 168.824 12.7056 169.557 12.7626C172.588 12.764 174.573 14.928 174.573 18.228Z" fill="#252525"/>
<path d="M177.923 13.0521C179.545 13.0521 180.861 11.7364 180.861 10.1135C180.861 8.49049 179.545 7.1748 177.923 7.1748C176.3 7.1748 174.984 8.49049 174.984 10.1135C174.984 11.7364 176.3 13.0521 177.923 13.0521Z" fill="#252525"/>
</svg>
