<svg width="152" height="35" viewBox="0 0 152 35" fill="none" xmlns="http://www.w3.org/2000/svg">
<path d="M0 34.6121H34.2V0.412109H0V34.6121ZM27.6174 14.2214H20.3907V6.99478H27.6174V14.2214ZM6.58133 6.99478H13.812V20.8028H27.6174V28.0294H6.58133V6.99478ZM56.4707 0.412109C53.0886 0.412109 49.7824 1.41502 46.9704 3.29399C44.1583 5.17296 41.9666 7.84362 40.6723 10.9682C39.378 14.0929 39.0395 17.531 39.6992 20.8481C40.3591 24.1652 41.9876 27.2121 44.3791 29.6036C46.7706 31.9952 49.8175 33.6237 53.1346 34.2836C56.4518 34.9433 59.8899 34.6048 63.0146 33.3105C66.1392 32.0162 68.8098 29.8245 70.6888 27.0124C72.5678 24.2002 73.5707 20.8941 73.5707 17.5121C73.5654 12.9785 71.762 8.63216 68.5563 5.42644C65.3506 2.22071 61.0043 0.417403 56.4707 0.412109ZM56.4707 28.0294C54.3906 28.0294 52.3571 27.4126 50.6275 26.2569C48.898 25.1013 47.5499 23.4588 46.7539 21.5369C45.9579 19.6152 45.7496 17.5005 46.1554 15.4602C46.5612 13.4201 47.563 11.5461 49.0338 10.0752C50.5047 8.60436 52.3787 7.60268 54.4188 7.19687C56.459 6.79106 58.5736 6.99934 60.4955 7.79536C62.4172 8.59139 64.0599 9.93943 65.2155 11.669C66.3712 13.3985 66.988 15.432 66.988 17.5121C66.9838 20.3002 65.8743 22.9729 63.9028 24.9444C61.9314 26.9158 59.2587 28.0252 56.4707 28.0294ZM134.763 0.412109C131.38 0.411856 128.074 1.41452 125.262 3.29334C122.45 5.17215 120.258 7.84271 118.963 10.9673C117.669 14.0918 117.33 17.5302 117.99 20.8473C118.649 24.1645 120.278 27.2116 122.669 29.6032C125.061 31.9948 128.108 33.6236 131.425 34.2834C134.741 34.9433 138.18 34.6048 141.305 33.3106C144.429 32.0164 147.1 29.8246 148.979 27.0125C150.859 24.2004 151.861 20.8942 151.861 17.5121C151.856 12.9788 150.053 8.63259 146.848 5.42691C143.643 2.22122 139.296 0.417763 134.763 0.412109ZM134.763 28.0294C132.683 28.0297 130.649 27.413 128.919 26.2576C127.189 25.1021 125.841 23.4596 125.045 21.5378C124.249 19.6161 124.04 17.5013 124.446 15.461C124.852 13.4209 125.853 11.5468 127.324 10.0757C128.795 8.6047 130.669 7.60288 132.709 7.19696C134.749 6.79104 136.864 6.99924 138.785 7.79524C140.708 8.59123 142.351 9.93926 143.507 11.6689C144.661 13.3985 145.279 15.432 145.279 17.5121C145.275 20.3 144.165 22.9724 142.193 24.9438C140.223 26.9153 137.551 28.0249 134.763 28.0294ZM95.616 0.412109C92.2339 0.412109 88.9278 1.41502 86.1158 3.29399C83.3036 5.17296 81.1119 7.84362 79.8176 10.9682C78.5234 14.0929 78.1848 17.531 78.8446 20.8481C79.5044 24.1652 81.133 27.2121 83.5244 29.6036C85.9159 31.9952 88.9628 33.6237 92.2799 34.2836C95.597 34.9433 99.0352 34.6048 102.16 33.3105C105.285 32.0162 107.955 29.8245 109.834 27.0124C111.713 24.2002 112.716 20.8941 112.716 17.5121C112.711 12.9785 110.907 8.63216 107.702 5.42644C104.496 2.22071 100.15 0.417403 95.616 0.412109ZM95.616 28.0294C93.6779 28.0304 91.7774 27.4958 90.1239 26.4848C88.4706 25.4737 87.1286 24.0256 86.2463 22.3C85.3642 20.5744 84.9758 18.6385 85.1243 16.7062C85.2728 14.7738 85.9523 12.9201 87.0879 11.3496C88.2235 9.77912 89.771 8.55292 91.5594 7.80639C93.3479 7.05984 95.3079 6.822 97.223 7.1191C99.1382 7.4162 100.934 8.23668 102.412 9.49C103.89 10.7433 104.994 12.3808 105.6 14.2214H95.616V20.8028H105.6C104.905 22.9032 103.567 24.7317 101.775 26.0288C99.9832 27.326 97.8283 28.0258 95.616 28.0294Z" fill="#252525"/>
</svg>
