<svg width="151" height="36" viewBox="0 0 151 36" fill="none" xmlns="http://www.w3.org/2000/svg">
<path d="M42.6416 11.1111H46.4449V26.5137H42.6416V11.1111ZM47.9614 20.72C47.9614 16.9049 50.3311 14.6182 53.8855 14.6182C57.4399 14.6182 59.8096 16.9049 59.8096 20.72C59.8096 24.5351 57.5229 26.8455 53.8855 26.8455C50.2481 26.8455 47.9614 24.618 47.9614 20.72ZM56.0419 20.72C56.0419 18.6228 55.2243 17.3906 53.921 17.3906C52.6177 17.3906 51.8121 18.5754 51.8121 20.72C51.8121 22.8645 52.6177 24.0374 53.921 24.0374C55.2243 24.0374 56.0656 22.8645 56.0656 20.7318L56.0419 20.72ZM61.3261 27.3075H64.9991C65.1662 27.7029 65.4583 28.0329 65.8306 28.2467C66.2028 28.4607 66.6348 28.547 67.0606 28.4923C68.518 28.4923 69.2762 27.7104 69.2762 26.5493V24.4166H69.2881C68.9742 25.0807 68.4667 25.6341 67.8323 26.0042C67.1978 26.3744 66.4662 26.5437 65.7336 26.49C62.9493 26.49 61.101 24.3692 61.101 20.72C61.101 17.0707 62.8664 14.7959 65.8403 14.7959C66.5916 14.7557 67.3369 14.9494 67.9734 15.3505C68.61 15.7516 69.1066 16.3402 69.3947 17.0352H69.2881V14.8907H73.0558V26.4308C73.0558 29.2151 70.5914 30.9568 66.9659 30.9568C63.6721 30.9449 61.5631 29.4402 61.3498 27.3194L61.3261 27.3075ZM69.2881 20.72C69.2881 18.8598 68.435 17.6868 67.0843 17.6868C65.7336 17.6868 64.9043 18.8717 64.9043 20.72C64.9043 22.5683 65.7218 23.6583 67.0843 23.6583C68.4469 23.6583 69.2881 22.6512 69.2881 20.72ZM74.5605 20.72C74.5605 16.9049 76.9301 14.6182 80.4846 14.6182C84.039 14.6182 86.4087 16.9049 86.4087 20.72C86.4087 24.5351 84.1101 26.8455 80.4846 26.8455C76.8591 26.8455 74.5842 24.618 74.5842 20.72H74.5605ZM82.6409 20.72C82.6409 18.6228 81.8116 17.3906 80.5201 17.3906C79.2287 17.3906 78.4112 18.5754 78.4112 20.72C78.4112 22.8645 79.2168 24.0374 80.5201 24.0374C81.8234 24.0374 82.6646 22.8645 82.6646 20.7318L82.6409 20.72ZM87.9489 12.0827C87.9323 11.6952 88.0321 11.3117 88.2353 10.9815C88.4385 10.6512 88.7359 10.3893 89.0892 10.2295C89.4425 10.0695 89.8355 10.0191 90.2177 10.0845C90.5999 10.1498 90.9538 10.328 91.2339 10.5961C91.514 10.8643 91.7075 11.21 91.7895 11.5891C91.8714 11.9681 91.8381 12.363 91.6938 12.7228C91.5495 13.0828 91.3008 13.3913 90.9797 13.6087C90.6586 13.8261 90.2798 13.9425 89.892 13.9428C89.6443 13.9491 89.3976 13.9061 89.1666 13.8164C88.9355 13.7266 88.7245 13.5918 88.5459 13.4198C88.3674 13.2479 88.2248 13.0422 88.1264 12.8146C88.028 12.5872 87.9757 12.3424 87.9726 12.0945L87.9489 12.0827ZM87.9489 14.8788H91.7996V26.5611H88.0082L87.9489 14.8788ZM105.65 20.72C105.65 24.5232 103.944 26.727 101.041 26.727C100.298 26.7728 99.5587 26.5894 98.923 26.2017C98.2874 25.814 97.7861 25.2405 97.4867 24.5588H97.4156V30.317H93.6123V14.9144H97.3919V16.9996H97.463C97.7521 16.3045 98.2485 15.7153 98.8845 15.3125C99.5206 14.9096 100.265 14.7127 101.017 14.7485C104.003 14.7248 105.721 16.9167 105.721 20.7318L105.65 20.72ZM101.776 20.72C101.776 18.8717 100.911 17.675 99.572 17.675C98.2331 17.675 97.3919 18.8598 97.38 20.72C97.3682 22.5801 98.2331 23.7531 99.572 23.7531C100.911 23.7531 101.847 22.6512 101.847 20.7318L101.776 20.72ZM112.143 14.6063C115.33 14.6063 117.309 16.111 117.332 18.5281H113.861C113.861 17.6868 113.162 17.1655 112.119 17.1655C111.077 17.1655 110.579 17.5684 110.579 18.1726C110.579 18.7769 111.017 18.9664 111.894 19.1442L114.335 19.6418C116.704 20.1394 117.652 21.0873 117.652 22.8526C117.652 25.2223 115.46 26.8336 112.202 26.8336C108.944 26.8336 106.823 25.2697 106.669 22.8882H110.354C110.46 23.7531 111.148 24.2626 112.261 24.2626C113.375 24.2626 113.896 23.9071 113.896 23.2792C113.896 22.6512 113.541 22.5446 112.629 22.355L110.425 21.8929C108.138 21.4072 106.942 20.2105 106.942 18.4214C107.013 16.0992 109.003 14.6182 112.214 14.6182L112.143 14.6063ZM130.389 26.5493H126.704V24.3573H126.633C126.427 25.0885 125.978 25.7275 125.359 26.1689C124.741 26.6105 123.991 26.8282 123.233 26.7862C122.66 26.8048 122.089 26.7022 121.56 26.4849C121.03 26.2677 120.551 25.9409 120.157 25.5258C119.761 25.1107 119.459 24.6167 119.268 24.0764C119.078 23.5361 119.003 22.9615 119.05 22.3906V14.8907H122.854V21.573C122.854 22.9474 123.576 23.6938 124.761 23.6938C125.04 23.6917 125.313 23.63 125.566 23.5129C125.818 23.3957 126.042 23.2258 126.222 23.0147C126.403 22.8036 126.537 22.5561 126.614 22.289C126.69 22.0218 126.709 21.7414 126.669 21.4664V14.8907H130.46L130.389 26.5493ZM132.225 14.8788H135.922V17.13H136.005C136.209 16.4088 136.647 15.7757 137.249 15.3298C137.852 14.8839 138.586 14.6503 139.334 14.6656C140.087 14.6002 140.837 14.8177 141.436 15.2756C142.037 15.7336 142.444 16.3991 142.581 17.1418H142.747C142.984 16.395 143.46 15.7474 144.103 15.2997C144.745 14.8518 145.519 14.6289 146.301 14.6656C146.821 14.6458 147.34 14.7361 147.822 14.9305C148.306 15.1248 148.742 15.419 149.103 15.7937C149.465 16.1684 149.742 16.6152 149.918 17.1047C150.096 17.5943 150.167 18.1156 150.128 18.6347V26.5611H146.301V19.6062C146.301 18.4214 145.744 17.7579 144.666 17.7579C144.427 17.754 144.19 17.8019 143.971 17.8981C143.751 17.9944 143.557 18.1369 143.398 18.3159C143.239 18.4949 143.121 18.7059 143.051 18.9348C142.982 19.1637 142.963 19.4048 142.995 19.6418V26.5611H139.37V19.5707C139.37 18.3859 138.789 17.7579 137.747 17.7579C137.505 17.756 137.266 17.8058 137.045 17.9039C136.824 18.0021 136.627 18.1463 136.466 18.327C136.306 18.5077 136.186 18.7206 136.115 18.9514C136.043 19.1823 136.022 19.4258 136.052 19.6655V26.5611H132.249L132.225 14.8788Z" fill="#252525"/>
<path d="M35.1179 12.1186C35.118 9.76051 34.4059 7.4573 33.0749 5.51072C31.7439 3.56414 29.8559 2.06494 27.6584 1.2095C25.4609 0.354051 23.0562 0.182253 20.7595 0.716593C18.4626 1.25093 16.3808 2.4665 14.7865 4.20408H0V35.4121H31.2198V20.827C32.4452 19.7311 33.4257 18.389 34.0974 16.8885C34.7691 15.3879 35.1168 13.7627 35.1179 12.1186ZM29.1109 12.1186C29.1132 13.2486 28.7803 14.3539 28.1543 15.2947C27.5281 16.2353 26.6371 16.9692 25.5938 17.4032C24.5504 17.8373 23.4018 17.9521 22.2932 17.733C21.1847 17.5141 20.166 16.9711 19.3661 16.1728C18.5663 15.3746 18.0212 14.3571 17.7999 13.249C17.5786 12.1409 17.691 10.992 18.1229 9.94783C18.5548 8.9036 19.2867 8.011 20.2261 7.38297C21.1655 6.75493 22.2701 6.4197 23.4001 6.41969C24.9126 6.41969 26.3634 7.01974 27.434 8.08816C28.5047 9.15657 29.1078 10.6061 29.1109 12.1186ZM25.2128 29.4051H6.00701V10.2111H11.86C11.7469 10.8408 11.6875 11.479 11.6823 12.1186C11.6854 15.2255 12.921 18.2041 15.1179 20.401C17.3146 22.5977 20.2932 23.8334 23.4001 23.8365C24.0075 23.8333 24.6137 23.7817 25.2128 23.6824V29.4051Z" fill="#252525"/>
</svg>
