<svg width="151" height="37" viewBox="0 0 151 37" fill="none" xmlns="http://www.w3.org/2000/svg">
<path fill-rule="evenodd" clip-rule="evenodd" d="M20.0549 0.449498L20.0334 0.412109H11.0923L0.5 18.5704L7.77104 31.2926L7.77997 31.2772L10.5287 36.0382L31.5503 36.1322L38.9326 23.474H38.8835L41.6106 18.7506L31.1813 0.498309L20.0549 0.449498ZM26.9714 12.5588H27.0272L21.7713 3.43051L29.4514 3.46419L38.1816 18.7429L35.4491 23.476L28.2879 23.4798L30.7847 19.1555L26.9714 12.5588ZM18.2342 3.38551L21.8179 9.58527L16.8559 9.58515L8.3609 24.3173L7.78143 25.3183L3.93351 18.5855L12.8002 3.38551H18.2342ZM14.7885 19.1228L18.5736 12.5586L23.5369 12.5588L27.3507 19.1564L24.8534 23.4817L17.3073 23.4858L14.7885 19.1228ZM9.49559 28.3018L10.9356 25.8046L13.0771 22.1056L15.5909 26.4602L23.1359 26.456L23.1237 26.4772L33.7317 26.4897L29.8467 33.1512L12.2498 33.0724L9.49559 28.3018Z" fill="#252525"/>
<path d="M95.7649 11.2932C96.7831 11.2932 97.6103 10.4659 97.6103 9.42652C97.6103 8.38711 96.7831 7.58105 95.7649 7.58105C94.7255 7.58105 93.8982 8.38711 93.8982 9.42652C93.8982 10.4659 94.7255 11.2932 95.7649 11.2932ZM94.1103 23.5537H97.3982V12.9477H94.1103V23.5537Z" fill="#252525"/>
<path d="M99.312 28.6448H102.536V22.4933C103.151 23.2994 104.551 23.8508 106.015 23.8508C109.176 23.8508 111.085 21.4327 111 18.0812C110.915 14.666 108.942 12.6084 105.994 12.6084C104.488 12.6084 103.067 13.266 102.473 14.2417L102.303 12.9478H99.312V28.6448ZM102.6 18.2508C102.6 16.66 103.661 15.5994 105.188 15.5994C106.736 15.5994 107.712 16.6812 107.712 18.2508C107.712 19.8205 106.736 20.9024 105.188 20.9024C103.661 20.9024 102.6 19.8417 102.6 18.2508Z" fill="#252525"/>
<path d="M111.348 20.2024C111.433 22.3448 113.131 23.8296 115.803 23.8296C118.369 23.8296 120.152 22.4721 120.152 20.2872C120.152 18.7175 119.218 17.6782 117.478 17.2538L115.591 16.7872C114.912 16.6175 114.487 16.4478 114.487 15.8963C114.487 15.3448 114.933 14.9842 115.591 14.9842C116.333 14.9842 116.821 15.4721 116.799 16.1933H119.748C119.664 13.9872 117.987 12.6084 115.654 12.6084C113.299 12.6084 111.539 14.0084 111.539 16.1296C111.539 17.5508 112.324 18.7175 114.424 19.2691L116.291 19.757C116.842 19.9054 117.075 20.16 117.075 20.5205C117.075 21.0508 116.587 21.3903 115.761 21.3903C114.806 21.3903 114.297 20.9448 114.297 20.2024H111.348Z" fill="#252525"/>
<path d="M125.152 23.8295C126.445 23.8295 127.739 23.2356 128.397 22.366L128.609 23.5538H131.685V12.9478H128.418V18.4629C128.418 20.0538 127.952 20.9235 126.445 20.9235C125.278 20.9235 124.515 20.3932 124.515 18.4204V12.9478H121.248V19.6083C121.248 22.1326 122.648 23.8295 125.152 23.8295Z" fill="#252525"/>
<path d="M136.865 23.5536V17.7627C136.865 15.9809 137.819 15.4718 138.753 15.4718C139.793 15.4718 140.472 16.1081 140.472 17.4234V23.5536H143.695V17.7627C143.695 15.9597 144.628 15.4506 145.562 15.4506C146.602 15.4506 147.302 16.0869 147.302 17.4234V23.5536H150.483V16.6172C150.483 14.199 149.21 12.5869 146.474 12.5869C144.947 12.5869 143.695 13.3294 143.144 14.4748C142.507 13.3294 141.405 12.5869 139.644 12.5869C138.477 12.5869 137.395 13.1172 136.759 13.9657L136.632 12.9476H133.577V23.5536H136.865Z" fill="#252525"/>
<path d="M50.9629 7.8584H47.4841V23.5554H57.1145V20.4796H50.9629V7.8584Z" fill="#252525"/>
<path d="M57.4465 18.231C57.4465 21.5824 59.6951 23.8097 63.089 23.8097C66.4618 23.8097 68.7102 21.5824 68.7102 18.231C68.7102 14.8794 66.4618 12.6309 63.089 12.6309C59.6951 12.6309 57.4465 14.8794 57.4465 18.231ZM60.7344 18.2097C60.7344 16.6187 61.6678 15.5582 63.089 15.5582C64.489 15.5582 65.4223 16.6187 65.4223 18.2097C65.4223 19.8219 64.489 20.8824 63.089 20.8824C61.6678 20.8824 60.7344 19.8219 60.7344 18.2097Z" fill="#252525"/>
<path d="M69.2357 18.0615C69.2357 21.2646 71.3146 23.4282 74.263 23.4282C75.6843 23.4282 76.9146 22.9192 77.5297 22.0919V23.5555C77.5297 25.0192 76.6176 25.9949 75.0055 25.9949C73.563 25.9949 72.566 25.3161 72.5024 24.107H69.1934C69.4902 27.0131 71.7388 28.9646 74.8146 28.9646C78.4418 28.9646 80.7327 26.6101 80.7327 22.8768V12.9494H77.7842L77.6146 14.0313C77.0206 13.1615 75.7691 12.5889 74.3267 12.5889C71.3569 12.5889 69.2357 14.8161 69.2357 18.0615ZM72.5448 17.9768C72.5448 16.4494 73.563 15.4313 74.8569 15.4313C76.363 15.4313 77.466 16.4282 77.466 17.9768C77.466 19.5252 76.3842 20.5858 74.8781 20.5858C73.5842 20.5858 72.5448 19.5252 72.5448 17.9768Z" fill="#252525"/>
<path d="M81.6848 18.231C81.6848 21.5824 83.9333 23.8097 87.3273 23.8097C90.6999 23.8097 92.9485 21.5824 92.9485 18.231C92.9485 14.8794 90.6999 12.6309 87.3273 12.6309C83.9333 12.6309 81.6848 14.8794 81.6848 18.231ZM84.9727 18.2097C84.9727 16.6187 85.906 15.5582 87.3273 15.5582C88.7273 15.5582 89.6606 16.6187 89.6606 18.2097C89.6606 19.8219 88.7273 20.8824 87.3273 20.8824C85.906 20.8824 84.9727 19.8219 84.9727 18.2097Z" fill="#252525"/>
</svg>
