<svg width="85" height="41" viewBox="0 0 85 41" fill="none" xmlns="http://www.w3.org/2000/svg">
<path d="M0.5 24.4268H3.01815V36.774H0.5V24.4268Z" fill="#252525"/>
<path d="M4.47847 32.5434C4.47681 31.6566 4.73828 30.7891 5.22979 30.0509C5.7213 29.3127 6.42075 28.7369 7.23965 28.3963C8.05849 28.0558 8.96 27.9658 9.83004 28.1378C10.7001 28.3098 11.4995 28.7361 12.1272 29.3626C12.7549 29.9891 13.1827 30.7878 13.3563 31.6575C13.5299 32.5272 13.4417 33.4289 13.1027 34.2484C12.7636 35.0679 12.1891 35.7684 11.4518 36.2613C10.7146 36.7543 9.84764 37.0173 8.9608 37.0173C8.37093 37.024 7.78578 36.913 7.23947 36.6906C6.69318 36.4683 6.19674 36.1392 5.77929 35.7224C5.36183 35.3058 5.03174 34.81 4.80837 34.264C4.58501 33.7182 4.47285 33.1332 4.47847 32.5434ZM10.9081 32.5434C10.8982 32.1606 10.7756 31.7891 10.5557 31.4756C10.3358 31.162 10.0284 30.9203 9.67173 30.7806C9.31511 30.6409 8.92525 30.6095 8.55093 30.6902C8.17654 30.7709 7.83431 30.9602 7.56694 31.2345C7.29965 31.5087 7.11912 31.8557 7.04795 32.2321C6.9768 32.6083 7.0182 32.9973 7.16694 33.3502C7.31574 33.7031 7.56525 34.0043 7.88427 34.2161C8.20338 34.428 8.57778 34.541 8.9608 34.5411C9.22276 34.5485 9.48347 34.5015 9.7264 34.403C9.96933 34.3045 10.1892 34.1568 10.3723 33.969C10.5552 33.7813 10.6973 33.5577 10.7895 33.3124C10.8818 33.067 10.9221 32.8052 10.9081 32.5434Z" fill="#252525"/>
<path d="M23.566 28.3129V36.3541C23.566 39.1996 21.3417 40.4 19.0922 40.4C18.3012 40.4588 17.5092 40.2988 16.8029 39.9376C16.0967 39.5763 15.5036 39.0277 15.0884 38.3519L17.254 37.1012C17.4258 37.4475 17.6977 37.7344 18.0344 37.9244C18.3711 38.1144 18.7572 38.1991 19.1426 38.1672C19.3961 38.2095 19.656 38.1929 19.9022 38.1188C20.1484 38.0448 20.3743 37.9152 20.5625 37.74C20.7506 37.5648 20.896 37.3487 20.9875 37.1084C21.0789 36.8681 21.114 36.6101 21.0899 36.3541V35.5735C20.7939 35.9377 20.4161 36.2271 19.9874 36.4181C19.5587 36.6091 19.0909 36.6965 18.6221 36.6731C17.4823 36.6731 16.3893 36.2203 15.5832 35.4144C14.7773 34.6084 14.3245 33.5153 14.3245 32.3754C14.3245 31.2356 14.7773 30.1426 15.5832 29.3366C16.3893 28.5306 17.4823 28.0779 18.6221 28.0779C19.0907 28.0564 19.5577 28.1447 19.9861 28.3355C20.4146 28.5265 20.7925 28.8147 21.0899 29.1774V28.338L23.566 28.3129ZM21.0899 32.3754C21.1067 31.9673 21.0009 31.5634 20.7863 31.2156C20.5716 30.868 20.258 30.5924 19.8855 30.4245C19.5131 30.2565 19.0989 30.2038 18.6962 30.2731C18.2935 30.3424 17.9208 30.5306 17.626 30.8133C17.331 31.0962 17.1275 31.4607 17.0414 31.8601C16.9553 32.2594 16.9907 32.6755 17.1429 33.0546C17.2952 33.4338 17.5573 33.7587 17.8957 33.9877C18.2341 34.2168 18.6333 34.3393 19.0418 34.3396C19.3085 34.3585 19.5762 34.3213 19.8276 34.2304C20.079 34.1394 20.3086 33.997 20.5016 33.8119C20.6945 33.6268 20.8466 33.4034 20.9479 33.156C21.0492 32.9086 21.0976 32.6427 21.0899 32.3754Z" fill="#252525"/>
<path d="M25.0183 32.5434C25.0166 31.6566 25.2781 30.7891 25.7696 30.0509C26.2611 29.3127 26.9606 28.7369 27.7794 28.3963C28.5983 28.0558 29.4998 27.9658 30.3698 28.1378C31.2399 28.3098 32.0393 28.7361 32.6671 29.3626C33.2947 29.9891 33.7224 30.7878 33.8961 31.6575C34.0697 32.5272 33.9815 33.4289 33.6424 34.2484C33.3034 35.0679 32.7289 35.7684 31.9917 36.2613C31.2543 36.7543 30.3874 37.0173 29.5006 37.0173C28.9108 37.024 28.3256 36.913 27.7792 36.6906C27.2329 36.4683 26.7365 36.1392 26.3191 35.7224C25.9016 35.3058 25.5715 34.81 25.3481 34.264C25.1248 33.7182 25.0126 33.1332 25.0183 32.5434ZM31.4479 32.5434C31.438 32.1606 31.3154 31.7891 31.0955 31.4756C30.8756 31.162 30.5681 30.9203 30.2115 30.7806C29.855 30.6409 29.4651 30.6095 29.0907 30.6902C28.7163 30.7709 28.3741 30.9602 28.1067 31.2345C27.8394 31.5087 27.6589 31.8557 27.5877 32.2321C27.5166 32.6083 27.558 32.9973 27.7067 33.3502C27.8555 33.7031 28.105 34.0043 28.424 34.2161C28.7432 34.428 29.1176 34.541 29.5006 34.5411C29.7612 34.5461 30.02 34.4974 30.261 34.3978C30.5019 34.2983 30.7198 34.1502 30.9009 33.9627C31.0821 33.7753 31.2226 33.5525 31.3139 33.3083C31.4051 33.0641 31.445 32.8037 31.4311 32.5434H31.4479Z" fill="#252525"/>
<path d="M35.1497 26.0467C35.1497 25.7446 35.2393 25.4492 35.4071 25.198C35.575 24.9468 35.8136 24.751 36.0927 24.6353C36.3719 24.5197 36.679 24.4895 36.9753 24.5484C37.2717 24.6073 37.5439 24.7528 37.7576 24.9664C37.9713 25.1801 38.1167 25.4523 38.1756 25.7487C38.2346 26.045 38.2043 26.3522 38.0888 26.6313C37.9731 26.9104 37.7773 27.1491 37.5261 27.3169C37.2748 27.4847 36.9795 27.5743 36.6773 27.5743C36.2729 27.5722 35.8856 27.4105 35.5995 27.1245C35.3135 26.8385 35.1519 26.4512 35.1497 26.0467ZM35.4098 28.313H37.928V36.774H35.4098V28.313Z" fill="#252525"/>
<path d="M48.9069 32.5439C48.9374 33.1032 48.8571 33.663 48.6704 34.1911C48.4836 34.7192 48.1944 35.2051 47.8191 35.621C47.4438 36.0368 46.99 36.3743 46.4838 36.614C45.9776 36.8537 45.429 36.991 44.8695 37.0178C44.3998 37.0403 43.9308 36.9596 43.4958 36.7812C43.0607 36.6028 42.67 36.3312 42.3514 35.9854V40.1823H39.8333V28.3134H42.3514V29.1108C42.67 28.7651 43.0607 28.4934 43.4958 28.315C43.9308 28.1366 44.3998 28.0559 44.8695 28.0784C45.4283 28.1052 45.9762 28.2422 46.4818 28.4814C46.9875 28.7207 47.4409 29.0574 47.816 29.4723C48.1912 29.8873 48.4806 30.3722 48.6678 30.8993C48.8551 31.4264 48.9363 31.9853 48.9069 32.5439ZM46.3888 32.5439C46.3788 32.1499 46.2535 31.7675 46.0283 31.4441C45.8032 31.1207 45.4882 30.8703 45.1222 30.7242C44.7563 30.5779 44.3554 30.5423 43.9694 30.6217C43.5834 30.701 43.2291 30.8918 42.9504 31.1705C42.6717 31.4491 42.481 31.8034 42.4016 32.1894C42.3223 32.5754 42.358 32.9762 42.5041 33.3422C42.6503 33.7082 42.9006 34.0233 43.2241 34.2483C43.5476 34.4735 43.93 34.5988 44.3239 34.6088C44.5988 34.6263 44.8743 34.5847 45.1319 34.4869C45.3894 34.389 45.623 34.2372 45.8171 34.0417C46.011 33.846 46.161 33.6112 46.2567 33.3529C46.3523 33.0946 46.3917 32.8187 46.372 32.5439H46.3888Z" fill="#252525"/>
<path d="M56.747 34.2389C56.747 36.1863 55.0683 37.0172 53.2216 37.0172C52.4839 37.0825 51.7436 36.9255 51.0959 36.5665C50.4482 36.2075 49.9227 35.6629 49.5872 35.0027L51.7864 33.752C51.8756 34.0574 52.0667 34.323 52.3278 34.5047C52.5889 34.6863 52.9043 34.7733 53.2216 34.7509C53.8344 34.7509 54.1366 34.5578 54.1366 34.2221C54.1366 33.2903 49.9397 33.7856 49.9397 30.8646C49.9397 29.0179 51.5009 28.0862 53.2972 28.0862C53.96 28.0661 54.6162 28.2235 55.1977 28.5424C55.7792 28.8611 56.2648 29.3296 56.6044 29.8992L54.3968 31.0576C54.2993 30.836 54.1395 30.6473 53.9368 30.5147C53.7342 30.3821 53.4975 30.3112 53.2552 30.3105C52.8188 30.3105 52.5502 30.4784 52.5502 30.789C52.5838 31.7543 56.747 31.108 56.747 34.2389Z" fill="#252525"/>
<path d="M66.0134 28.313V36.7739H63.4952V35.985C63.2023 36.3355 62.8306 36.6118 62.4104 36.7913C61.9903 36.9707 61.5336 37.0482 61.0778 37.0174C59.399 37.0174 57.9133 35.8003 57.9133 33.5088V28.313H60.4315V33.1395C60.4093 33.3452 60.4333 33.5532 60.5016 33.7484C60.5699 33.9437 60.6807 34.1213 60.8262 34.2684C60.9716 34.4156 61.1481 34.5284 61.3426 34.5988C61.5371 34.6692 61.7449 34.6954 61.9507 34.6756C62.8741 34.6756 63.5204 34.1383 63.5204 32.938V28.313H66.0134Z" fill="#252525"/>
<path d="M80.5685 31.5866V36.774H78.0503V31.8049C78.0503 30.9656 77.639 30.4115 76.8332 30.4115C76.0274 30.4115 75.507 31.0075 75.507 32.0063V36.774H72.9888V31.8049C72.9888 30.9656 72.5859 30.4115 71.7717 30.4115C70.9576 30.4115 70.4539 31.0075 70.4539 32.0063V36.774H67.9358V28.3131H70.4539V29.0937C70.7171 28.7489 71.0623 28.4754 71.4581 28.2981C71.8539 28.1207 72.2878 28.045 72.7202 28.0781C73.1545 28.0569 73.587 28.1488 73.9752 28.3443C74.3636 28.54 74.6946 28.8328 74.9362 29.1944C75.2171 28.8164 75.5893 28.5157 76.0179 28.3205C76.4465 28.1253 76.9176 28.0418 77.3871 28.0781C79.301 28.0781 80.5685 29.4714 80.5685 31.5866Z" fill="#252525"/>
<path d="M82.7174 28.2629C83.7558 28.2629 84.5976 27.421 84.5976 26.3826C84.5976 25.3442 83.7558 24.5024 82.7174 24.5024C81.679 24.5024 80.8372 25.3442 80.8372 26.3826C80.8372 27.421 81.679 28.2629 82.7174 28.2629Z" fill="#252525"/>
<path d="M28.9968 18.0223C33.8597 18.0223 37.8018 14.0801 37.8018 9.21718C37.8018 4.35429 33.8597 0.412109 28.9968 0.412109C24.1339 0.412109 20.1917 4.35429 20.1917 9.21718C20.1917 14.0801 24.1339 18.0223 28.9968 18.0223Z" fill="#252525"/>
<path d="M48.6804 18.0223C53.5433 18.0223 57.4854 14.0801 57.4854 9.21718C57.4854 4.35429 53.5433 0.412109 48.6804 0.412109C43.8175 0.412109 39.8752 4.35429 39.8752 9.21718C39.8752 14.0801 43.8175 18.0223 48.6804 18.0223Z" fill="#252525"/>
<path d="M18.1186 0.412109H0.516846V18.0139H18.1186V0.412109Z" fill="#252525"/>
</svg>
